<?xml version="1.0" encoding="utf-8"?>
<!-- Generator: Adobe Illustrator 24.2.3, SVG Export Plug-In . SVG Version: 6.00 Build 0)  -->
<svg version="1.1" id="Layer_1" xmlns="http://www.w3.org/2000/svg" xmlns:xlink="http://www.w3.org/1999/xlink" x="0px" y="0px"
	 viewBox="0 0 32 32" style="enable-background:new 0 0 32 32;" xml:space="preserve">
<style type="text/css">
	.st0{fill:#0073E6;}
	.st1{fill:#FFD700;}
</style>
<path class="st0" d="M30,32H2c-1.1,0-2-0.9-2-2V2c0-1.1,0.9-2,2-2h28c1.1,0,2,0.9,2,2v28C32,31.1,31.1,32,30,32z"/>
<path class="st1" d="M9,8.7C8.8,8,8.7,7.2,8.7,6.4c0-0.9,0.1-1.7,0.3-2.2c0.3-1.1,0.8-1.5,0.8-1.5c0.4-0.6,2.1-1.2,3.1-0.1
	c1.1,1.1,2.7,3.6,2.6,5.9c-0.1,2.3-1.9,5.4-3.7,4.4C10.5,12.2,9.5,10.6,9,8.7z M19.5,13.5c1.5,0.4,3.1-1.5,4-3.4
	c0.4-0.9,0.7-1.8,0.8-2.5c0.2-1.2,0-3-0.8-4.1c-0.7-0.8-1.7-1.2-3.3-0.3c0,0-2.5,1.6-2.9,4.1C16.9,9.8,17.2,12.8,19.5,13.5z
	 M25.8,12.6c0,0-1.4,1-2.3,2.4c-0.4,0.7-0.8,1.4-0.9,2.3c-0.1,1.6,0.1,2.9,0.9,3.6c0.4,0.4,1,0.6,1.8,0.6c2.1,0,4.7-3,4.7-5.7
	C29.9,13,28.4,10.9,25.8,12.6z M9,18.4c0.3-0.6,0.4-1.6,0.2-2.9c0-0.3-0.1-0.6-0.2-0.8c-0.7-2.4-2.7-3.8-2.7-3.8
	c-4.1-1.8-4.7,3-3.8,5.2C3.3,18,5,20,6.9,19.6C8,19.4,8.7,19.1,9,18.4z M23.4,23.7c-1.4-2.9-3.8-5.6-4.8-6.5
	c-1.3-1.1-3.5-1.6-4.6-0.3c0,0-2.8,2.1-5,4.7c-0.8,1-1.6,2.1-2,3.2c-1.4,3.4,0.2,5,2,5.2c0.3,0,0.6,0,0.9-0.1
	c2.1-0.4,5.2-2.5,8.6-1.1c1.9,0.8,3.8,0.7,4.9-0.1c0.8-0.6,1.1-1.7,0.7-3.2C23.9,24.9,23.7,24.3,23.4,23.7z"/>
</svg>
